<svg width="25" height="24" viewBox="0 0 25 24" fill="none" xmlns="http://www.w3.org/2000/svg">
<path fill-rule="evenodd" clip-rule="evenodd" d="M12.5 4C10.5478 4 8.74816 4.161 7.30371 4.35177C6.00372 4.52346 5.02346 5.50372 4.85177 6.80371C4.66101 8.24816 4.5 10.0478 4.5 12C4.5 13.9522 4.661 15.7518 4.85177 17.1963C5.02346 18.4963 6.00372 19.4765 7.30371 19.6482C8.74816 19.839 10.5478 20 12.5 20C14.4522 20 16.2518 19.839 17.6963 19.6482C18.9963 19.4765 19.9765 18.4963 20.1482 17.1963C20.339 15.7518 20.5 13.9522 20.5 12C20.5 10.0478 20.339 8.24816 20.1482 6.80371C19.9765 5.50372 18.9963 4.52346 17.6963 4.35177C16.2518 4.16101 14.4522 4 12.5 4ZM7.04184 2.36899C4.84504 2.65912 3.15912 4.34504 2.86899 6.54184C2.66953 8.05208 2.5 9.94127 2.5 12C2.5 14.0587 2.66953 15.9479 2.86899 17.4582C3.15912 19.655 4.84504 21.3409 7.04184 21.631C8.55208 21.8305 10.4413 22 12.5 22C14.5587 22 16.4479 21.8305 17.9582 21.631C20.155 21.3409 21.8409 19.655 22.131 17.4582C22.3305 15.9479 22.5 14.0587 22.5 12C22.5 9.94127 22.3305 8.05208 22.131 6.54184C21.8409 4.34504 20.155 2.65912 17.9582 2.36899C16.4479 2.16953 14.5587 2 12.5 2C10.4413 2 8.55208 2.16953 7.04184 2.36899Z" fill="#FCFCFD"/>
</svg>
