<svg width="232" height="110" viewBox="0 0 232 110" fill="none" xmlns="http://www.w3.org/2000/svg">
<path d="M1.352 45V0.199997H11.08L25.352 28.616L39.432 0.199997H49.16V45H40.968V14.088L28.488 38.6H22.024L9.544 14.088V45H1.352ZM67.324 45.768C64.5933 45.768 62.3533 45.3413 60.604 44.488C58.8547 43.592 57.5533 42.4187 56.7 40.968C55.8467 39.5173 55.42 37.9173 55.42 36.168C55.42 33.224 56.572 30.8347 58.876 29C61.18 27.1653 64.636 26.248 69.244 26.248H77.308V25.48C77.308 23.304 76.6893 21.704 75.452 20.68C74.2147 19.656 72.6787 19.144 70.844 19.144C69.18 19.144 67.7293 19.5493 66.492 20.36C65.2547 21.128 64.4867 22.28 64.188 23.816H56.188C56.4013 21.512 57.1693 19.5067 58.492 17.8C59.8573 16.0933 61.6067 14.792 63.74 13.896C65.8733 12.9573 68.2627 12.488 70.908 12.488C75.4307 12.488 78.9933 13.6187 81.596 15.88C84.1987 18.1413 85.5 21.3413 85.5 25.48V45H78.524L77.756 39.88C76.8173 41.5867 75.4947 42.9947 73.788 44.104C72.124 45.2133 69.9693 45.768 67.324 45.768ZM69.18 39.368C71.5267 39.368 73.34 38.6 74.62 37.064C75.9427 35.528 76.7747 33.6293 77.116 31.368H70.14C67.964 31.368 66.4067 31.7733 65.468 32.584C64.5293 33.352 64.06 34.312 64.06 35.464C64.06 36.7013 64.5293 37.6613 65.468 38.344C66.4067 39.0267 67.644 39.368 69.18 39.368ZM92.0375 45V13.256H99.3335L100.102 19.208C101.254 17.16 102.811 15.5387 104.774 14.344C106.779 13.1067 109.126 12.488 111.814 12.488V21.128H109.51C107.718 21.128 106.118 21.4053 104.71 21.96C103.302 22.5147 102.192 23.4747 101.382 24.84C100.614 26.2053 100.23 28.104 100.23 30.536V45H92.0375ZM131.122 45.768C127.879 45.768 125.021 45.064 122.546 43.656C120.071 42.248 118.109 40.2853 116.658 37.768C115.25 35.2507 114.546 32.3707 114.546 29.128C114.546 25.8853 115.25 23.0053 116.658 20.488C118.109 17.9707 120.071 16.008 122.546 14.6C125.021 13.192 127.879 12.488 131.122 12.488C135.175 12.488 138.589 13.5547 141.362 15.688C144.135 17.7787 145.906 20.68 146.674 24.392H138.034C137.607 22.856 136.754 21.6613 135.474 20.808C134.237 19.912 132.765 19.464 131.058 19.464C128.797 19.464 126.877 20.3173 125.298 22.024C123.719 23.7307 122.93 26.0987 122.93 29.128C122.93 32.1573 123.719 34.5253 125.298 36.232C126.877 37.9387 128.797 38.792 131.058 38.792C132.765 38.792 134.237 38.3653 135.474 37.512C136.754 36.6587 137.607 35.4427 138.034 33.864H146.674C145.906 37.448 144.135 40.328 141.362 42.504C138.589 44.68 135.175 45.768 131.122 45.768ZM167.897 45.768C164.825 45.768 162.052 45.064 159.577 43.656C157.145 42.248 155.204 40.3067 153.753 37.832C152.345 35.3147 151.641 32.4133 151.641 29.128C151.641 25.8427 152.366 22.9627 153.817 20.488C155.268 17.9707 157.209 16.008 159.641 14.6C162.116 13.192 164.889 12.488 167.961 12.488C170.99 12.488 173.721 13.192 176.153 14.6C178.628 16.008 180.569 17.9707 181.977 20.488C183.428 22.9627 184.153 25.8427 184.153 29.128C184.153 32.4133 183.428 35.3147 181.977 37.832C180.569 40.3067 178.628 42.248 176.153 43.656C173.678 45.064 170.926 45.768 167.897 45.768ZM167.897 38.664C170.03 38.664 171.886 37.8747 173.465 36.296C175.044 34.6747 175.833 32.2853 175.833 29.128C175.833 25.9707 175.044 23.6027 173.465 22.024C171.886 20.4027 170.052 19.592 167.961 19.592C165.785 19.592 163.908 20.4027 162.329 22.024C160.793 23.6027 160.025 25.9707 160.025 29.128C160.025 32.2853 160.793 34.6747 162.329 36.296C163.908 37.8747 165.764 38.664 167.897 38.664ZM16.712 109.768C13.4693 109.768 10.6107 109.064 8.136 107.656C5.66133 106.248 3.69867 104.285 2.248 101.768C0.84 99.2507 0.136 96.3707 0.136 93.128C0.136 89.8853 0.84 87.0053 2.248 84.488C3.69867 81.9707 5.66133 80.008 8.136 78.6C10.6107 77.192 13.4693 76.488 16.712 76.488C20.7653 76.488 24.1787 77.5547 26.952 79.688C29.7253 81.7787 31.496 84.68 32.264 88.392H23.624C23.1973 86.856 22.344 85.6613 21.064 84.808C19.8267 83.912 18.3547 83.464 16.648 83.464C14.3867 83.464 12.4667 84.3173 10.888 86.024C9.30933 87.7307 8.52 90.0987 8.52 93.128C8.52 96.1573 9.30933 98.5253 10.888 100.232C12.4667 101.939 14.3867 102.792 16.648 102.792C18.3547 102.792 19.8267 102.365 21.064 101.512C22.344 100.659 23.1973 99.4427 23.624 97.864H32.264C31.496 101.448 29.7253 104.328 26.952 106.504C24.1787 108.68 20.7653 109.768 16.712 109.768ZM49.199 109.768C46.4683 109.768 44.2283 109.341 42.479 108.488C40.7297 107.592 39.4283 106.419 38.575 104.968C37.7217 103.517 37.295 101.917 37.295 100.168C37.295 97.224 38.447 94.8347 40.751 93C43.055 91.1653 46.511 90.248 51.119 90.248H59.183V89.48C59.183 87.304 58.5643 85.704 57.327 84.68C56.0897 83.656 54.5537 83.144 52.719 83.144C51.055 83.144 49.6043 83.5493 48.367 84.36C47.1297 85.128 46.3617 86.28 46.063 87.816H38.063C38.2763 85.512 39.0443 83.5067 40.367 81.8C41.7323 80.0933 43.4817 78.792 45.615 77.896C47.7483 76.9573 50.1377 76.488 52.783 76.488C57.3057 76.488 60.8683 77.6187 63.471 79.88C66.0737 82.1413 67.375 85.3413 67.375 89.48V109H60.399L59.631 103.88C58.6923 105.587 57.3697 106.995 55.663 108.104C53.999 109.213 51.8443 109.768 49.199 109.768ZM51.055 103.368C53.4017 103.368 55.215 102.6 56.495 101.064C57.8177 99.528 58.6497 97.6293 58.991 95.368H52.015C49.839 95.368 48.2817 95.7733 47.343 96.584C46.4043 97.352 45.935 98.312 45.935 99.464C45.935 100.701 46.4043 101.661 47.343 102.344C48.2817 103.027 49.519 103.368 51.055 103.368ZM73.9125 109V77.256H81.2085L81.9765 83.208C83.1285 81.16 84.6858 79.5387 86.6485 78.344C88.6538 77.1067 91.0005 76.488 93.6885 76.488V85.128H91.3845C89.5925 85.128 87.9925 85.4053 86.5845 85.96C85.1765 86.5147 84.0672 87.4747 83.2565 88.84C82.4885 90.2053 82.1045 92.104 82.1045 94.536V109H73.9125ZM98.0075 109V77.256H105.304L106.072 83.208C107.224 81.16 108.781 79.5387 110.744 78.344C112.749 77.1067 115.096 76.488 117.784 76.488V85.128H115.48C113.688 85.128 112.088 85.4053 110.68 85.96C109.272 86.5147 108.162 87.4747 107.352 88.84C106.584 90.2053 106.2 92.104 106.2 94.536V109H98.0075ZM126.518 72.328C125.025 72.328 123.788 71.88 122.806 70.984C121.868 70.088 121.398 68.9573 121.398 67.592C121.398 66.2267 121.868 65.1173 122.806 64.264C123.788 63.368 125.025 62.92 126.518 62.92C128.012 62.92 129.228 63.368 130.166 64.264C131.148 65.1173 131.638 66.2267 131.638 67.592C131.638 68.9573 131.148 70.088 130.166 70.984C129.228 71.88 128.012 72.328 126.518 72.328ZM122.422 109V77.256H130.614V109H122.422ZM137.885 109V62.92H146.077V109H137.885ZM153.168 109V62.92H161.36V109H153.168ZM183.682 109.768C180.61 109.768 177.837 109.064 175.362 107.656C172.93 106.248 170.989 104.307 169.538 101.832C168.13 99.3147 167.426 96.4133 167.426 93.128C167.426 89.8427 168.151 86.9627 169.602 84.488C171.053 81.9707 172.994 80.008 175.426 78.6C177.901 77.192 180.674 76.488 183.746 76.488C186.775 76.488 189.506 77.192 191.938 78.6C194.413 80.008 196.354 81.9707 197.762 84.488C199.213 86.9627 199.938 89.8427 199.938 93.128C199.938 96.4133 199.213 99.3147 197.762 101.832C196.354 104.307 194.413 106.248 191.938 107.656C189.463 109.064 186.711 109.768 183.682 109.768ZM183.682 102.664C185.815 102.664 187.671 101.875 189.25 100.296C190.829 98.6747 191.618 96.2853 191.618 93.128C191.618 89.9707 190.829 87.6027 189.25 86.024C187.671 84.4027 185.837 83.592 183.746 83.592C181.57 83.592 179.693 84.4027 178.114 86.024C176.578 87.6027 175.81 89.9707 175.81 93.128C175.81 96.2853 176.578 98.6747 178.114 100.296C179.693 101.875 181.549 102.664 183.682 102.664ZM218.142 90.248C215.54 90.248 213.214 89.672 211.166 88.52C209.161 87.368 207.582 85.7893 206.43 83.784C205.278 81.736 204.702 79.432 204.702 76.872C204.702 74.2693 205.278 71.9653 206.43 69.96C207.582 67.912 209.161 66.312 211.166 65.16C213.214 64.008 215.54 63.432 218.142 63.432C220.745 63.432 223.049 64.008 225.054 65.16C227.06 66.312 228.617 67.912 229.726 69.96C230.878 71.9653 231.454 74.2693 231.454 76.872C231.454 79.432 230.878 81.736 229.726 83.784C228.617 85.7893 227.06 87.368 225.054 88.52C223.049 89.672 220.745 90.248 218.142 90.248ZM218.142 87.304C221.214 87.304 223.668 86.344 225.502 84.424C227.38 82.4613 228.318 79.944 228.318 76.872C228.318 73.7573 227.38 71.24 225.502 69.32C223.668 67.4 221.214 66.44 218.142 66.44C215.028 66.44 212.532 67.4 210.654 69.32C208.82 71.24 207.902 73.7573 207.902 76.872C207.902 79.944 208.82 82.4613 210.654 84.424C212.532 86.344 215.028 87.304 218.142 87.304ZM212.638 83.528V69.896H219.294C220.745 69.896 221.897 70.28 222.75 71.048C223.646 71.816 224.094 72.8613 224.094 74.184C224.094 76.1893 223.134 77.512 221.214 78.152L224.67 83.464L220.318 83.528L217.31 78.472H216.478V83.528H212.638ZM216.414 75.72H218.782C219.166 75.72 219.486 75.6133 219.742 75.4C220.041 75.1867 220.19 74.8453 220.19 74.376C220.19 73.9493 220.041 73.6507 219.742 73.48C219.486 73.2667 219.166 73.16 218.782 73.16H216.414V75.72Z" fill="#FCFCFD"/>
</svg>
