<svg width="333" height="112" viewBox="0 0 333 112" fill="none" xmlns="http://www.w3.org/2000/svg">
<path d="M17.304 47C13.976 47 11.3093 46.1893 9.304 44.568C7.29867 42.9467 6.296 40.0667 6.296 35.928V22.104H0.856V15.256H6.296L7.256 6.744H14.488V15.256H23.064V22.104H14.488V35.992C14.488 37.528 14.808 38.5947 15.448 39.192C16.1307 39.7467 17.2827 40.024 18.904 40.024H22.872V47H17.304ZM28.8175 47V0.919998H37.0095V20.12C38.0762 18.3707 39.5055 17.0053 41.2975 16.024C43.1322 15 45.2228 14.488 47.5695 14.488C51.4948 14.488 54.5242 15.7253 56.6575 18.2C58.8335 20.6747 59.9215 24.3013 59.9215 29.08V47H51.7935V29.848C51.7935 27.1173 51.2388 25.0267 50.1295 23.576C49.0628 22.1253 47.3562 21.4 45.0095 21.4C42.7055 21.4 40.7855 22.2107 39.2495 23.832C37.7562 25.4533 37.0095 27.7147 37.0095 30.616V47H28.8175ZM81.899 47.768C78.699 47.768 75.8617 47.0853 73.387 45.72C70.9123 44.3547 68.971 42.4347 67.563 39.96C66.155 37.4853 65.451 34.6267 65.451 31.384C65.451 28.0987 66.1337 25.176 67.499 22.616C68.907 20.056 70.827 18.072 73.259 16.664C75.7337 15.2133 78.635 14.488 81.963 14.488C85.0777 14.488 87.8297 15.1707 90.219 16.536C92.6083 17.9013 94.4643 19.7787 95.787 22.168C97.1523 24.5147 97.835 27.1387 97.835 30.04C97.835 30.5093 97.8137 31 97.771 31.512C97.771 32.024 97.7497 32.5573 97.707 33.112H73.579C73.7497 35.5867 74.603 37.528 76.139 38.936C77.7177 40.344 79.6163 41.048 81.835 41.048C83.499 41.048 84.8857 40.6853 85.995 39.96C87.147 39.192 88.0003 38.2107 88.555 37.016H96.875C96.2777 39.0213 95.275 40.856 93.867 42.52C92.5017 44.1413 90.795 45.4213 88.747 46.36C86.7417 47.2987 84.459 47.768 81.899 47.768ZM81.963 21.144C79.9577 21.144 78.187 21.72 76.651 22.872C75.115 23.9813 74.1337 25.688 73.707 27.992H89.515C89.387 25.9013 88.619 24.2373 87.211 23C85.803 21.7627 84.0537 21.144 81.963 21.144ZM132.967 47.768C129.724 47.768 126.866 47.064 124.391 45.656C121.916 44.248 119.954 42.2853 118.503 39.768C117.095 37.2507 116.391 34.3707 116.391 31.128C116.391 27.8853 117.095 25.0053 118.503 22.488C119.954 19.9707 121.916 18.008 124.391 16.6C126.866 15.192 129.724 14.488 132.967 14.488C137.02 14.488 140.434 15.5547 143.207 17.688C145.98 19.7787 147.751 22.68 148.519 26.392H139.879C139.452 24.856 138.599 23.6613 137.319 22.808C136.082 21.912 134.61 21.464 132.903 21.464C130.642 21.464 128.722 22.3173 127.143 24.024C125.564 25.7307 124.775 28.0987 124.775 31.128C124.775 34.1573 125.564 36.5253 127.143 38.232C128.722 39.9387 130.642 40.792 132.903 40.792C134.61 40.792 136.082 40.3653 137.319 39.512C138.599 38.6587 139.452 37.4427 139.879 35.864H148.519C147.751 39.448 145.98 42.328 143.207 44.504C140.434 46.68 137.02 47.768 132.967 47.768ZM154.51 47V15.256H161.806L162.574 21.208C163.726 19.16 165.283 17.5387 167.246 16.344C169.251 15.1067 171.598 14.488 174.286 14.488V23.128H171.982C170.19 23.128 168.59 23.4053 167.182 23.96C165.774 24.5147 164.665 25.4747 163.854 26.84C163.086 28.2053 162.702 30.104 162.702 32.536V47H154.51ZM193.467 47.768C190.267 47.768 187.429 47.0853 184.955 45.72C182.48 44.3547 180.539 42.4347 179.131 39.96C177.723 37.4853 177.019 34.6267 177.019 31.384C177.019 28.0987 177.701 25.176 179.067 22.616C180.475 20.056 182.395 18.072 184.827 16.664C187.301 15.2133 190.203 14.488 193.531 14.488C196.645 14.488 199.397 15.1707 201.787 16.536C204.176 17.9013 206.032 19.7787 207.355 22.168C208.72 24.5147 209.403 27.1387 209.403 30.04C209.403 30.5093 209.381 31 209.339 31.512C209.339 32.024 209.317 32.5573 209.275 33.112H185.147C185.317 35.5867 186.171 37.528 187.707 38.936C189.285 40.344 191.184 41.048 193.403 41.048C195.067 41.048 196.453 40.6853 197.563 39.96C198.715 39.192 199.568 38.2107 200.123 37.016H208.443C207.845 39.0213 206.843 40.856 205.435 42.52C204.069 44.1413 202.363 45.4213 200.315 46.36C198.309 47.2987 196.027 47.768 193.467 47.768ZM193.531 21.144C191.525 21.144 189.755 21.72 188.219 22.872C186.683 23.9813 185.701 25.688 185.275 27.992H201.083C200.955 25.9013 200.187 24.2373 198.779 23C197.371 21.7627 195.621 21.144 193.531 21.144ZM225.956 47.768C223.226 47.768 220.986 47.3413 219.236 46.488C217.487 45.592 216.186 44.4187 215.332 42.968C214.479 41.5173 214.052 39.9173 214.052 38.168C214.052 35.224 215.204 32.8347 217.508 31C219.812 29.1653 223.268 28.248 227.876 28.248H235.94V27.48C235.94 25.304 235.322 23.704 234.084 22.68C232.847 21.656 231.311 21.144 229.476 21.144C227.812 21.144 226.362 21.5493 225.124 22.36C223.887 23.128 223.119 24.28 222.82 25.816H214.82C215.034 23.512 215.802 21.5067 217.124 19.8C218.49 18.0933 220.239 16.792 222.372 15.896C224.506 14.9573 226.895 14.488 229.54 14.488C234.063 14.488 237.626 15.6187 240.228 17.88C242.831 20.1413 244.132 23.3413 244.132 27.48V47H237.156L236.388 41.88C235.45 43.5867 234.127 44.9947 232.42 46.104C230.756 47.2133 228.602 47.768 225.956 47.768ZM227.812 41.368C230.159 41.368 231.972 40.6 233.252 39.064C234.575 37.528 235.407 35.6293 235.748 33.368H228.772C226.596 33.368 225.039 33.7733 224.1 34.584C223.162 35.352 222.692 36.312 222.692 37.464C222.692 38.7013 223.162 39.6613 224.1 40.344C225.039 41.0267 226.276 41.368 227.812 41.368ZM264.376 47C261.048 47 258.382 46.1893 256.376 44.568C254.371 42.9467 253.368 40.0667 253.368 35.928V22.104H247.928V15.256H253.368L254.328 6.744H261.56V15.256H270.136V22.104H261.56V35.992C261.56 37.528 261.88 38.5947 262.52 39.192C263.203 39.7467 264.355 40.024 265.976 40.024H269.944V47H264.376ZM290.31 47.768C287.238 47.768 284.464 47.064 281.99 45.656C279.558 44.248 277.616 42.3067 276.166 39.832C274.758 37.3147 274.054 34.4133 274.054 31.128C274.054 27.8427 274.779 24.9627 276.23 22.488C277.68 19.9707 279.622 18.008 282.054 16.6C284.528 15.192 287.302 14.488 290.374 14.488C293.403 14.488 296.134 15.192 298.566 16.6C301.04 18.008 302.982 19.9707 304.39 22.488C305.84 24.9627 306.566 27.8427 306.566 31.128C306.566 34.4133 305.84 37.3147 304.39 39.832C302.982 42.3067 301.04 44.248 298.566 45.656C296.091 47.064 293.339 47.768 290.31 47.768ZM290.31 40.664C292.443 40.664 294.299 39.8747 295.878 38.296C297.456 36.6747 298.246 34.2853 298.246 31.128C298.246 27.9707 297.456 25.6027 295.878 24.024C294.299 22.4027 292.464 21.592 290.374 21.592C288.198 21.592 286.32 22.4027 284.742 24.024C283.206 25.6027 282.438 27.9707 282.438 31.128C282.438 34.2853 283.206 36.6747 284.742 38.296C286.32 39.8747 288.176 40.664 290.31 40.664ZM312.61 47V15.256H319.906L320.674 21.208C321.826 19.16 323.383 17.5387 325.346 16.344C327.351 15.1067 329.698 14.488 332.386 14.488V23.128H330.082C328.29 23.128 326.69 23.4053 325.282 23.96C323.874 24.5147 322.765 25.4747 321.954 26.84C321.186 28.2053 320.802 30.104 320.802 32.536V47H312.61ZM3.16 111V79.256H10.392L11.032 84.632C12.0133 82.7547 13.4213 81.2613 15.256 80.152C17.1333 79.0427 19.3307 78.488 21.848 78.488C25.7733 78.488 28.824 79.7253 31 82.2C33.176 84.6747 34.264 88.3013 34.264 93.08V111H26.072V93.848C26.072 91.1173 25.5173 89.0267 24.408 87.576C23.2987 86.1253 21.5707 85.4 19.224 85.4C16.92 85.4 15.0213 86.2107 13.528 87.832C12.0773 89.4533 11.352 91.7147 11.352 94.616V111H3.16ZM56.2415 111.768C53.0415 111.768 50.2042 111.085 47.7295 109.72C45.2548 108.355 43.3135 106.435 41.9055 103.96C40.4975 101.485 39.7935 98.6267 39.7935 95.384C39.7935 92.0987 40.4762 89.176 41.8415 86.616C43.2495 84.056 45.1695 82.072 47.6015 80.664C50.0762 79.2133 52.9775 78.488 56.3055 78.488C59.4202 78.488 62.1722 79.1707 64.5615 80.536C66.9508 81.9013 68.8068 83.7787 70.1295 86.168C71.4948 88.5147 72.1775 91.1387 72.1775 94.04C72.1775 94.5093 72.1562 95 72.1135 95.512C72.1135 96.024 72.0922 96.5573 72.0495 97.112H47.9215C48.0922 99.5867 48.9455 101.528 50.4815 102.936C52.0602 104.344 53.9588 105.048 56.1775 105.048C57.8415 105.048 59.2282 104.685 60.3375 103.96C61.4895 103.192 62.3428 102.211 62.8975 101.016H71.2175C70.6202 103.021 69.6175 104.856 68.2095 106.52C66.8442 108.141 65.1375 109.421 63.0895 110.36C61.0842 111.299 58.8015 111.768 56.2415 111.768ZM56.3055 85.144C54.3002 85.144 52.5295 85.72 50.9935 86.872C49.4575 87.9813 48.4762 89.688 48.0495 91.992H63.8575C63.7295 89.9013 62.9615 88.2373 61.5535 87C60.1455 85.7627 58.3962 85.144 56.3055 85.144ZM91.369 111C88.041 111 85.3743 110.189 83.369 108.568C81.3637 106.947 80.361 104.067 80.361 99.928V86.104H74.921V79.256H80.361L81.321 70.744H88.553V79.256H97.129V86.104H88.553V99.992C88.553 101.528 88.873 102.595 89.513 103.192C90.1957 103.747 91.3477 104.024 92.969 104.024H96.937V111H91.369ZM109.091 111L99.8105 79.256H107.939L113.443 102.104L119.843 79.256H128.931L135.331 102.104L140.899 79.256H149.027L139.683 111H131.171L124.387 87.256L117.603 111H109.091ZM167.022 111.768C163.95 111.768 161.177 111.064 158.702 109.656C156.27 108.248 154.329 106.307 152.878 103.832C151.47 101.315 150.766 98.4133 150.766 95.128C150.766 91.8427 151.491 88.9627 152.942 86.488C154.393 83.9707 156.334 82.008 158.766 80.6C161.241 79.192 164.014 78.488 167.086 78.488C170.115 78.488 172.846 79.192 175.278 80.6C177.753 82.008 179.694 83.9707 181.102 86.488C182.553 88.9627 183.278 91.8427 183.278 95.128C183.278 98.4133 182.553 101.315 181.102 103.832C179.694 106.307 177.753 108.248 175.278 109.656C172.803 111.064 170.051 111.768 167.022 111.768ZM167.022 104.664C169.155 104.664 171.011 103.875 172.59 102.296C174.169 100.675 174.958 98.2853 174.958 95.128C174.958 91.9707 174.169 89.6027 172.59 88.024C171.011 86.4027 169.177 85.592 167.086 85.592C164.91 85.592 163.033 86.4027 161.454 88.024C159.918 89.6027 159.15 91.9707 159.15 95.128C159.15 98.2853 159.918 100.675 161.454 102.296C163.033 103.875 164.889 104.664 167.022 104.664ZM189.323 111V79.256H196.619L197.387 85.208C198.539 83.16 200.096 81.5387 202.059 80.344C204.064 79.1067 206.411 78.488 209.099 78.488V87.128H206.795C205.003 87.128 203.403 87.4053 201.995 87.96C200.587 88.5147 199.477 89.4747 198.667 90.84C197.899 92.2053 197.515 94.104 197.515 96.536V111H189.323ZM213.418 111V64.92H221.61V92.12L232.874 79.256H242.602L229.61 93.72L244.714 111H234.474L221.61 95.064V111H213.418ZM260.672 92.248C258.07 92.248 255.744 91.672 253.696 90.52C251.691 89.368 250.112 87.7893 248.96 85.784C247.808 83.736 247.232 81.432 247.232 78.872C247.232 76.2693 247.808 73.9653 248.96 71.96C250.112 69.912 251.691 68.312 253.696 67.16C255.744 66.008 258.07 65.432 260.672 65.432C263.275 65.432 265.579 66.008 267.584 67.16C269.59 68.312 271.147 69.912 272.256 71.96C273.408 73.9653 273.984 76.2693 273.984 78.872C273.984 81.432 273.408 83.736 272.256 85.784C271.147 87.7893 269.59 89.368 267.584 90.52C265.579 91.672 263.275 92.248 260.672 92.248ZM260.672 89.304C263.744 89.304 266.198 88.344 268.032 86.424C269.91 84.4613 270.848 81.944 270.848 78.872C270.848 75.7573 269.91 73.24 268.032 71.32C266.198 69.4 263.744 68.44 260.672 68.44C257.558 68.44 255.062 69.4 253.184 71.32C251.35 73.24 250.432 75.7573 250.432 78.872C250.432 81.944 251.35 84.4613 253.184 86.424C255.062 88.344 257.558 89.304 260.672 89.304ZM255.168 85.528V71.896H261.824C263.275 71.896 264.427 72.28 265.28 73.048C266.176 73.816 266.624 74.8613 266.624 76.184C266.624 78.1893 265.664 79.512 263.744 80.152L267.2 85.464L262.848 85.528L259.84 80.472H259.008V85.528H255.168ZM258.944 77.72H261.312C261.696 77.72 262.016 77.6133 262.272 77.4C262.571 77.1867 262.72 76.8453 262.72 76.376C262.72 75.9493 262.571 75.6507 262.272 75.48C262.016 75.2667 261.696 75.16 261.312 75.16H258.944V77.72Z" fill="#FCFCFD"/>
</svg>
