<svg width="14" height="14" viewBox="0 0 14 14" fill="none" xmlns="http://www.w3.org/2000/svg">
<path d="M7.00065 0.333252C6.63246 0.333252 6.33398 0.631729 6.33398 0.999919V2.99992C6.33398 3.36811 6.63246 3.66659 7.00065 3.66659C7.36884 3.66659 7.66732 3.36811 7.66732 2.99992V0.999919C7.66732 0.631729 7.36884 0.333252 7.00065 0.333252Z" fill="#FCFCFD"/>
<path d="M7.00065 10.3333C6.63246 10.3333 6.33398 10.6317 6.33398 10.9999V12.9999C6.33398 13.3681 6.63246 13.6666 7.00065 13.6666C7.36884 13.6666 7.66732 13.3681 7.66732 12.9999V10.9999C7.66732 10.6317 7.36884 10.3333 7.00065 10.3333Z" fill="#FCFCFD"/>
<path d="M13.0007 6.33325C13.3688 6.33325 13.6673 6.63173 13.6673 6.99992C13.6673 7.36811 13.3688 7.66659 13.0007 7.66659H11.0007C10.6325 7.66659 10.334 7.36811 10.334 6.99992C10.334 6.63173 10.6325 6.33325 11.0007 6.33325H13.0007Z" fill="#FCFCFD"/>
<path d="M3.66732 6.99992C3.66732 6.63173 3.36884 6.33325 3.00065 6.33325H1.00065C0.632461 6.33325 0.333984 6.63173 0.333984 6.99992C0.333984 7.36811 0.632461 7.66659 1.00065 7.66659H3.00065C3.36884 7.66659 3.66732 7.36811 3.66732 6.99992Z" fill="#FCFCFD"/>
<path d="M10.7719 2.28594C11.0323 2.02559 11.4544 2.02559 11.7147 2.28594C11.9751 2.54629 11.9751 2.9684 11.7147 3.22875L10.3005 4.64296C10.0402 4.90331 9.61806 4.90331 9.35771 4.64296C9.09736 4.38261 9.09736 3.9605 9.35771 3.70015L10.7719 2.28594Z" fill="#FCFCFD"/>
<path d="M4.64361 9.3569C4.38326 9.09655 3.96115 9.09655 3.7008 9.3569L2.28658 10.7711C2.02623 11.0315 2.02623 11.4536 2.28658 11.7139C2.54693 11.9743 2.96904 11.9743 3.22939 11.7139L4.64361 10.2997C4.90395 10.0394 4.90395 9.61725 4.64361 9.3569Z" fill="#FCFCFD"/>
<path d="M11.7147 10.7712C11.9751 11.0315 11.9751 11.4536 11.7147 11.714C11.4544 11.9743 11.0323 11.9743 10.7719 11.714L9.35769 10.2998C9.09734 10.0394 9.09734 9.61733 9.35769 9.35698C9.61804 9.09663 10.0401 9.09663 10.3005 9.35698L11.7147 10.7712Z" fill="#FCFCFD"/>
<path d="M4.64367 4.64287C4.90402 4.38252 4.90402 3.96041 4.64367 3.70006L3.22945 2.28585C2.9691 2.0255 2.54699 2.0255 2.28664 2.28585C2.0263 2.5462 2.0263 2.96831 2.28664 3.22866L3.70086 4.64287C3.96121 4.90322 4.38332 4.90322 4.64367 4.64287Z" fill="#FCFCFD"/>
</svg>
