<svg width="26" height="28" viewBox="0 0 26 28" fill="none" xmlns="http://www.w3.org/2000/svg">
<path d="M22.0915 5.97927L15.6992 2.28868C14.1522 1.39551 12.2462 1.39551 10.6992 2.28868L4.30691 5.97927C2.75991 6.87244 1.80691 8.52307 1.80691 10.3094V17.6906C1.80691 19.4769 2.75991 21.1276 4.30691 22.0207L10.6992 25.7113C12.2462 26.6045 14.1522 26.6045 15.6992 25.7113L22.0915 22.0207C23.6385 21.1276 24.5915 19.4769 24.5915 17.6906V10.3094C24.5915 8.52307 23.6385 6.87244 22.0915 5.97927Z" fill="#45B36B" stroke="#141416" stroke-width="2"/>
<path d="M12.3021 9.56319C12.4067 9.38022 12.2519 9.15792 12.044 9.19256L11.0723 9.35451C10.9238 9.37927 10.8307 9.52873 10.8739 9.67295L11.1766 10.6818C11.2397 10.8923 11.5241 10.9248 11.6331 10.734L12.3021 9.56319Z" fill="#141416"/>
<path d="M10.0154 10.296C9.95963 10.1102 9.72361 10.0567 9.59702 10.2037C9.20446 10.6594 8.8337 11.1383 8.44975 11.599C8.42839 11.6246 8.408 11.6508 8.3886 11.6775C8.28448 11.8206 8.40277 12.0002 8.57978 12.0002H10.1906C10.3581 12.0002 10.4782 11.8388 10.4301 11.6784L10.0154 10.296Z" fill="#141416"/>
<path d="M8.50643 13C8.33827 13 8.21887 13.1639 8.30307 13.3095C8.33009 13.3562 8.35985 13.4018 8.39234 13.4461L11.989 18.3506C12.0491 18.4326 12.1155 18.5064 12.1869 18.5719C12.3422 18.7145 12.5368 18.5502 12.4747 18.3487L10.8809 13.1764C10.8486 13.0715 10.7517 13 10.6419 13H8.50643Z" fill="#141416"/>
<path d="M13.922 18.3488C13.8599 18.5503 14.0545 18.7147 14.2099 18.5721C14.2813 18.5065 14.3478 18.4327 14.408 18.3506L18.0046 13.4461C18.0371 13.4018 18.0668 13.3562 18.0938 13.3095C18.178 13.1639 18.0586 13 17.8905 13H15.7549C15.6452 13 15.5483 13.0715 15.516 13.1764L13.922 18.3488Z" fill="#141416"/>
<path d="M17.8181 11.9998C17.9951 11.9998 18.1134 11.8202 18.0093 11.6771C17.9899 11.6504 17.9695 11.6242 17.9481 11.5986C17.5642 11.1378 17.1934 10.659 16.8008 10.2032C16.6742 10.0562 16.4382 10.1097 16.3825 10.2955L15.9677 11.678C15.9196 11.8384 16.0397 11.9998 16.2072 11.9998H17.8181Z" fill="#141416"/>
<path d="M15.3279 9.35453C15.4764 9.37928 15.5695 9.52874 15.5263 9.67296L15.2236 10.6819C15.1605 10.8924 14.8761 10.9249 14.7671 10.7341L14.098 9.5632C13.9934 9.38022 14.1483 9.15792 14.3561 9.19256L15.3279 9.35453Z" fill="#141416"/>
<path d="M13.2002 10.0078L14.1249 11.626C14.2201 11.7927 14.0998 12 13.9078 12H12.4926C12.3006 12 12.1803 11.7927 12.2755 11.626L13.2002 10.0078Z" fill="#141416"/>
<path d="M13.4385 16.5232C13.3661 16.7586 13.033 16.7586 12.9606 16.5232L11.9761 13.3235C11.9266 13.1628 12.0468 13 12.215 13H14.1841C14.3523 13 14.4725 13.1628 14.423 13.3235L13.4385 16.5232Z" fill="#141416"/>
</svg>
