<svg width="16" height="10" viewBox="0 0 16 10" fill="none" xmlns="http://www.w3.org/2000/svg">
<path fill-rule="evenodd" clip-rule="evenodd" d="M13.3327 4C12.2281 4 11.3327 3.10457 11.3327 2C11.3327 0.89543 12.2281 0 13.3327 0C14.4373 0 15.3327 0.89543 15.3327 2C15.3327 3.10457 14.4373 4 13.3327 4ZM13.3327 2.66667C12.9645 2.66667 12.666 2.36819 12.666 2C12.666 1.63181 12.9645 1.33333 13.3327 1.33333C13.7009 1.33333 13.9993 1.63181 13.9993 2C13.9993 2.36819 13.7009 2.66667 13.3327 2.66667Z" fill="#FCFCFD"/>
<path fill-rule="evenodd" clip-rule="evenodd" d="M7.99935 6.66667C6.89478 6.66667 5.99935 5.77124 5.99935 4.66667C5.99935 3.5621 6.89478 2.66667 7.99935 2.66667C9.10392 2.66667 9.99935 3.5621 9.99935 4.66667C9.99935 5.77124 9.10392 6.66667 7.99935 6.66667ZM7.99935 5.33333C7.63116 5.33333 7.33268 5.03486 7.33268 4.66667C7.33268 4.29848 7.63116 4 7.99935 4C8.36754 4 8.66602 4.29848 8.66602 4.66667C8.66602 5.03486 8.36754 5.33333 7.99935 5.33333Z" fill="#FCFCFD"/>
<path fill-rule="evenodd" clip-rule="evenodd" d="M0.666016 7.33333C0.666016 8.4379 1.56145 9.33333 2.66602 9.33333C3.77058 9.33333 4.66602 8.4379 4.66602 7.33333C4.66602 6.22876 3.77058 5.33333 2.66602 5.33333C1.56145 5.33333 0.666016 6.22876 0.666016 7.33333ZM1.99935 7.33333C1.99935 7.70152 2.29783 8 2.66602 8C3.03421 8 3.33268 7.70152 3.33268 7.33333C3.33268 6.96514 3.03421 6.66667 2.66602 6.66667C2.29783 6.66667 1.99935 6.96514 1.99935 7.33333Z" fill="#FCFCFD"/>
</svg>
