<svg width="13" height="13" viewBox="0 0 13 13" fill="none" xmlns="http://www.w3.org/2000/svg">
<path d="M1.43543 1.12253C1.55187 0.773237 1.92941 0.584464 2.27871 0.700896L4.27871 1.36756C4.628 1.48399 4.81678 1.86154 4.70034 2.21084C4.58391 2.56013 4.20637 2.74891 3.85707 2.63247L1.85707 1.96581C1.50778 1.84938 1.319 1.47183 1.43543 1.12253Z" fill="#FCFCFD"/>
<path d="M1.47157 5.03517C1.63623 4.70585 2.03668 4.57237 2.366 4.73703L3.69933 5.4037C4.02865 5.56836 4.16213 5.96881 3.99747 6.29813C3.83281 6.62744 3.43236 6.76093 3.10305 6.59627L1.76971 5.9296C1.44039 5.76494 1.30691 5.36449 1.47157 5.03517Z" fill="#FCFCFD"/>
<path d="M6.53928 11.1381C6.79963 10.8777 6.79963 10.4556 6.53928 10.1953C6.27893 9.93491 5.85682 9.93491 5.59647 10.1953L4.59647 11.1953C4.33612 11.4556 4.33612 11.8777 4.59647 12.1381C4.85682 12.3984 5.27893 12.3984 5.53928 12.1381L6.53928 11.1381Z" fill="#FCFCFD"/>
<path d="M6.59647 7.19526C6.85682 6.93491 7.27893 6.93491 7.53928 7.19526L7.87261 7.5286C8.13296 7.78894 8.13296 8.21105 7.87261 8.4714C7.61226 8.73175 7.19015 8.73175 6.9298 8.4714L6.59647 8.13807C6.33612 7.87772 6.33612 7.45561 6.59647 7.19526Z" fill="#FCFCFD"/>
<path d="M2.66414 8.96479C2.8288 8.63547 2.69532 8.23502 2.366 8.07036C2.03668 7.90571 1.63623 8.03919 1.47157 8.36851L0.804903 9.70184C0.640243 10.0312 0.773726 10.4316 1.10305 10.5963C1.43236 10.7609 1.83281 10.6274 1.99747 10.2981L2.66414 8.96479Z" fill="#FCFCFD"/>
<path d="M11.9975 5.70184C12.1621 6.03116 12.0286 6.43161 11.6993 6.59627L10.366 7.26293C10.0367 7.42759 9.63623 7.29411 9.47157 6.96479C9.30691 6.63547 9.44039 6.23502 9.76971 6.07036L11.103 5.4037C11.4324 5.23904 11.8328 5.37252 11.9975 5.70184Z" fill="#FCFCFD"/>
<path d="M8.03368 3.54417C8.15011 3.19487 7.96134 2.81733 7.61204 2.7009C7.26275 2.58446 6.8852 2.77324 6.76877 3.12253L6.43543 4.12253C6.319 4.47183 6.50778 4.84937 6.85707 4.96581C7.20637 5.08224 7.58391 4.89347 7.70034 4.54417L8.03368 3.54417Z" fill="#FCFCFD"/>
</svg>
