<svg width="14" height="14" viewBox="0 0 14 14" fill="none" xmlns="http://www.w3.org/2000/svg">
<path fill-rule="evenodd" clip-rule="evenodd" d="M7.19987 13.6668C10.8818 13.6668 13.8665 10.6821 13.8665 7.00016C13.8665 3.31826 10.8818 0.333496 7.19987 0.333496C3.51797 0.333496 0.533203 3.31826 0.533203 7.00016C0.533203 10.6821 3.51797 13.6668 7.19987 13.6668ZM11.4131 10.2706C12.1151 9.36752 12.5332 8.23266 12.5332 7.00016C12.5332 4.28042 10.4974 2.03616 7.86654 1.70809V4.41751C9.01669 4.71354 9.86654 5.7576 9.86654 7.00016C9.86654 7.49473 9.7319 7.95785 9.49729 8.35487L11.4131 10.2706ZM10.4702 11.2134L8.55445 9.29765C8.15746 9.53222 7.69438 9.66683 7.19987 9.66683C6.70536 9.66683 6.24228 9.53222 5.84529 9.29765L3.9295 11.2134C4.83261 11.9155 5.96742 12.3335 7.19987 12.3335C8.43232 12.3335 9.56713 11.9155 10.4702 11.2134ZM4.5332 7.00016C4.5332 7.49473 4.66784 7.95785 4.90245 8.35487L2.98668 10.2706C2.28461 9.36752 1.86654 8.23266 1.86654 7.00016C1.86654 4.28042 3.90233 2.03616 6.5332 1.70809V4.41751C5.38305 4.71354 4.5332 5.7576 4.5332 7.00016ZM7.19987 8.3335C7.93625 8.3335 8.5332 7.73654 8.5332 7.00016C8.5332 6.26378 7.93625 5.66683 7.19987 5.66683C6.46349 5.66683 5.86654 6.26378 5.86654 7.00016C5.86654 7.73654 6.46349 8.3335 7.19987 8.3335Z" fill="#FCFCFD"/>
</svg>
